<?xml version="1.0" standalone="no"?>
<!DOCTYPE svg PUBLIC "-//W3C//DTD SVG 20010904//EN"
 "http://www.w3.org/TR/2001/REC-SVG-20010904/DTD/svg10.dtd">
<svg version="1.0" xmlns="http://www.w3.org/2000/svg"
 width="968.000000pt" height="968.000000pt" viewBox="0 0 968.000000 968.000000"
 preserveAspectRatio="xMidYMid meet">
<metadata>
Created by potrace 1.14, written by Peter Selinger 2001-2017
</metadata>
<g transform="translate(0.000000,968.000000) scale(0.100000,-0.100000)"
fill="#000000" stroke="none">
<path d="M2127 9634 c-1 -1 -60 -4 -130 -8 -71 -3 -132 -8 -136 -10 -4 -3 -27
-6 -50 -7 -23 -2 -45 -7 -47 -11 -3 -5 -9 -6 -13 -4 -19 12 -279 -59 -410
-114 -119 -49 -231 -103 -231 -112 0 -4 -6 -8 -13 -8 -7 0 -36 -16 -66 -35
-29 -19 -55 -35 -57 -35 -6 0 -150 -108 -194 -145 -36 -30 -247 -243 -265
-267 -5 -7 -27 -34 -47 -60 -21 -25 -38 -51 -38 -56 0 -6 -4 -12 -9 -14 -15
-6 -111 -159 -137 -220 -9 -21 -20 -38 -25 -38 -5 0 -8 -3 -7 -7 2 -5 -7 -28
-19 -53 -33 -67 -89 -218 -108 -291 -9 -35 -20 -71 -23 -79 -5 -14 -7 -22 -15
-67 -2 -10 -6 -34 -10 -53 -10 -52 -16 -88 -24 -155 -10 -79 -10 -5808 0
-5907 4 -43 9 -83 12 -90 2 -7 6 -26 9 -43 3 -16 7 -41 10 -55 3 -14 8 -38 11
-55 11 -53 45 -170 65 -220 4 -11 18 -47 31 -80 24 -63 155 -326 167 -335 4
-3 24 -30 44 -60 104 -159 279 -347 428 -460 18 -14 38 -29 44 -35 23 -21 137
-95 146 -95 6 0 10 -4 10 -9 0 -5 8 -11 18 -15 9 -3 33 -15 52 -26 58 -35 75
-44 80 -46 3 0 32 -13 65 -28 33 -15 74 -34 90 -41 63 -28 151 -56 258 -84
127 -33 170 -41 317 -57 92 -11 5777 -10 5875 0 84 9 120 14 120 16 0 1 14 4
30 6 49 8 209 46 220 52 6 4 15 7 20 7 12 1 15 2 155 57 177 68 397 193 510
290 21 18 53 44 71 58 54 41 195 186 256 263 32 40 60 74 64 77 45 40 250 414
263 480 1 3 5 11 9 17 5 7 10 21 12 30 2 10 13 43 23 75 11 31 18 59 15 62 -4
3 -1 6 6 6 7 0 9 5 6 10 -4 6 -1 17 5 25 7 8 10 15 7 15 -3 0 -1 15 4 33 5 17
12 48 15 67 2 19 7 43 10 53 3 11 7 31 9 45 2 15 7 56 12 92 10 84 11 5826 0
5905 -4 33 -10 74 -12 91 -7 53 -47 228 -58 254 -4 8 -9 26 -11 40 -3 14 -5
26 -7 28 -1 1 -2 5 -4 10 -1 4 -7 20 -13 35 -7 16 -12 32 -12 37 0 13 -70 167
-109 240 -19 36 -40 75 -45 87 -6 13 -14 23 -18 23 -5 0 -8 5 -8 11 0 12 -60
103 -72 107 -4 2 -8 10 -8 18 0 8 -4 14 -8 14 -5 0 -13 9 -18 19 -35 75 -293
331 -439 436 -15 11 -42 30 -58 43 -17 12 -36 22 -43 22 -7 0 -14 4 -16 8 -6
16 -278 162 -301 162 -2 0 -22 8 -43 17 -22 9 -41 17 -44 18 -3 1 -50 16 -105
33 -55 17 -111 33 -125 36 -14 2 -32 7 -40 10 -19 7 -71 15 -135 22 -27 4 -58
10 -67 15 -10 6 -19 5 -23 -1 -3 -5 -15 -6 -28 -1 -12 4 -67 9 -122 10 -102 2
-5505 7 -5508 5z"/>
</g>
</svg>
